<?xml version="1.0" encoding="utf-8"?>
<!-- Generator: Adobe Illustrator 26.4.1, SVG Export Plug-In . SVG Version: 6.00 Build 0)  -->
<svg version="1.1" id="Layer_1" xmlns="http://www.w3.org/2000/svg" xmlns:xlink="http://www.w3.org/1999/xlink" x="0px" y="0px"
	 viewBox="0 0 612 792" style="enable-background:new 0 0 612 792;" xml:space="preserve">
<style type="text/css">
	.st0{fill:#010139;}
	.st1{fill:#8345FE;}
	.st2{opacity:0.1;}
	.st3{fill:url(#SVGID_1_);}
	.st4{fill:#8D47FC;}
	.st5{opacity:0.2;}
	.st6{fill:url(#SVGID_00000072255632551562488950000001368635595200861367_);}
	.st7{fill:#4F2FED;}
	.st8{fill:url(#SVGID_00000170977440247673203040000001576874091271180731_);}
	.st9{fill:#6931F4;}
	.st10{fill:url(#SVGID_00000131335177597429908620000016053730977564853921_);}
</style>
<g>
	<g>
		<path class="st0" d="M88.9,499.5c-3-1.4-5.4-3.2-7.1-5.6c-1.8-2.3-2.7-4.9-2.9-7.8h11.8c0.2,1.8,1.1,3.3,2.6,4.4
			c1.5,1.2,3.4,1.8,5.7,1.8c2.2,0,4-0.4,5.2-1.3c1.3-0.9,1.9-2,1.9-3.4c0-1.5-0.8-2.6-2.3-3.4c-1.5-0.8-4-1.6-7.3-2.5
			c-3.5-0.8-6.3-1.7-8.5-2.6c-2.2-0.9-4.1-2.3-5.7-4.1s-2.4-4.3-2.4-7.4c0-2.6,0.7-4.9,2.2-7c1.5-2.1,3.6-3.8,6.4-5
			c2.8-1.2,6-1.8,9.7-1.8c5.5,0,9.9,1.4,13.2,4.1c3.3,2.8,5.1,6.5,5.4,11.2h-11.2c-0.2-1.8-0.9-3.3-2.3-4.4
			c-1.4-1.1-3.2-1.6-5.5-1.6c-2.1,0-3.7,0.4-4.9,1.2c-1.1,0.8-1.7,1.9-1.7,3.3c0,1.6,0.8,2.7,2.3,3.6c1.6,0.8,4,1.6,7.3,2.5
			c3.3,0.8,6.1,1.7,8.3,2.6c2.2,0.9,4.1,2.3,5.6,4.1c1.6,1.9,2.4,4.3,2.5,7.4c0,2.7-0.7,5.1-2.2,7.2c-1.5,2.1-3.6,3.8-6.4,5
			c-2.8,1.2-6,1.8-9.7,1.8C95.3,501.5,91.9,500.8,88.9,499.5z"/>
		<path class="st0" d="M140.6,464.1v22.4c0,1.6,0.4,2.7,1.1,3.4c0.8,0.7,2,1,3.8,1h5.4v9.9h-7.4c-9.9,0-14.8-4.8-14.8-14.4v-22.3
			h-5.5v-9.6h5.5V443h11.8v11.5h10.4v9.6H140.6z"/>
		<path class="st0" d="M159.2,465c1.9-3.6,4.4-6.4,7.6-8.4c3.2-2,6.8-2.9,10.7-2.9c3.5,0,6.5,0.7,9.1,2.1c2.6,1.4,4.7,3.2,6.2,5.3
			v-6.6h11.8v46.3h-11.8V494c-1.5,2.2-3.6,4-6.2,5.4c-2.6,1.4-5.7,2.1-9.2,2.1c-3.9,0-7.5-1-10.7-3c-3.2-2-5.7-4.8-7.6-8.5
			c-1.9-3.7-2.8-7.8-2.8-12.6C156.4,472.8,157.3,468.6,159.2,465z M191.2,470.3c-1.1-2-2.6-3.6-4.5-4.7c-1.9-1.1-3.9-1.6-6.1-1.6
			s-4.2,0.5-6,1.6c-1.8,1.1-3.3,2.6-4.5,4.6c-1.1,2-1.7,4.4-1.7,7.2c0,2.8,0.6,5.2,1.7,7.3c1.1,2.1,2.6,3.7,4.5,4.8
			c1.9,1.1,3.9,1.7,6,1.7c2.2,0,4.2-0.5,6.1-1.6c1.9-1.1,3.4-2.6,4.5-4.7c1.1-2,1.7-4.5,1.7-7.3
			C192.8,474.8,192.3,472.3,191.2,470.3z"/>
		<path class="st0" d="M233.7,455.9c2.4-1.4,5.2-2.1,8.3-2.1v12.3h-3.1c-3.7,0-6.5,0.9-8.3,2.6c-1.9,1.7-2.8,4.7-2.8,9v23.1h-11.7
			v-46.3h11.7v7.2C229.3,459.2,231.2,457.3,233.7,455.9z"/>
		<path class="st0" d="M305.2,456.1c2.7,1.5,4.9,3.8,6.4,6.8c1.5,3,2.3,6.6,2.3,10.7v27.2h-11.7v-25.6c0-3.7-0.9-6.5-2.8-8.5
			c-1.8-2-4.3-3-7.5-3c-3.2,0-5.8,1-7.7,3c-1.9,2-2.8,4.8-2.8,8.5v25.6h-11.7v-61.9h11.7v21.3c1.5-2,3.5-3.6,6-4.7
			c2.5-1.1,5.3-1.7,8.4-1.7C299.4,453.8,302.5,454.5,305.2,456.1z"/>
		<path class="st0" d="M367.8,481.1h-33.9c0.3,3.3,1.4,6,3.5,7.9c2.1,1.9,4.6,2.8,7.6,2.8c4.3,0,7.4-1.9,9.3-5.6h12.6
			c-1.3,4.5-3.9,8.1-7.7,11c-3.8,2.9-8.4,4.3-14,4.3c-4.5,0-8.5-1-12-3c-3.5-2-6.3-4.8-8.3-8.4c-2-3.6-3-7.8-3-12.5
			c0-4.8,1-9,2.9-12.6c2-3.6,4.7-6.4,8.2-8.4c3.5-2,7.6-2.9,12.1-2.9c4.4,0,8.3,0.9,11.8,2.8c3.5,1.9,6.2,4.6,8.1,8.1
			c1.9,3.5,2.9,7.5,2.9,12C368.1,478.3,368,479.8,367.8,481.1z M356,473.3c-0.1-3-1.1-5.4-3.3-7.2c-2.1-1.8-4.7-2.7-7.8-2.7
			c-2.9,0-5.3,0.9-7.3,2.6c-2,1.8-3.2,4.2-3.6,7.3H356z"/>
		<path class="st0" d="M376.4,465c1.9-3.6,4.4-6.4,7.6-8.4c3.2-2,6.8-2.9,10.7-2.9c3.5,0,6.5,0.7,9.1,2.1c2.6,1.4,4.7,3.2,6.2,5.3
			v-6.6h11.8v46.3h-11.8V494c-1.5,2.2-3.6,4-6.2,5.4c-2.6,1.4-5.7,2.1-9.2,2.1c-3.9,0-7.5-1-10.7-3c-3.2-2-5.7-4.8-7.6-8.5
			c-1.9-3.7-2.8-7.8-2.8-12.6C373.6,472.8,374.5,468.6,376.4,465z M408.4,470.3c-1.1-2-2.6-3.6-4.5-4.7c-1.9-1.1-3.9-1.6-6.1-1.6
			c-2.2,0-4.2,0.5-6,1.6c-1.8,1.1-3.3,2.6-4.5,4.6c-1.1,2-1.7,4.4-1.7,7.2c0,2.8,0.6,5.2,1.7,7.3c1.1,2.1,2.6,3.7,4.5,4.8
			c1.9,1.1,3.9,1.7,6,1.7c2.2,0,4.2-0.5,6.1-1.6c1.9-1.1,3.4-2.6,4.5-4.7c1.1-2,1.7-4.5,1.7-7.3
			C410.1,474.8,409.5,472.3,408.4,470.3z"/>
		<path class="st0" d="M445,438.9v61.9h-11.7v-61.9H445z"/>
		<path class="st0" d="M470.2,464.1v22.4c0,1.6,0.4,2.7,1.1,3.4c0.8,0.7,2,1,3.8,1h5.4v9.9h-7.4c-9.9,0-14.8-4.8-14.8-14.4v-22.3
			h-5.5v-9.6h5.5V443h11.8v11.5h10.4v9.6H470.2z"/>
		<path class="st0" d="M524.5,456.1c2.7,1.5,4.9,3.8,6.4,6.8c1.5,3,2.3,6.6,2.3,10.7v27.2h-11.7v-25.6c0-3.7-0.9-6.5-2.8-8.5
			c-1.8-2-4.3-3-7.5-3c-3.2,0-5.8,1-7.7,3c-1.9,2-2.8,4.8-2.8,8.5v25.6H489v-61.9h11.7v21.3c1.5-2,3.5-3.6,6-4.7
			c2.5-1.1,5.3-1.7,8.4-1.7C518.6,453.8,521.7,454.5,524.5,456.1z"/>
	</g>
	<g>
		<path class="st1" d="M233.9,342.2V307c30.1,0,54.5-24.5,54.5-54.5h35.2C323.6,301.9,283.3,342.2,233.9,342.2z"/>
	</g>
	<g class="st2">
		<linearGradient id="SVGID_1_" gradientUnits="userSpaceOnUse" x1="265.0839" y1="316.8696" x2="271.6315" y2="304.3201">
			<stop  offset="0" style="stop-color:#000000"/>
			<stop  offset="1" style="stop-color:#000000;stop-opacity:0"/>
		</linearGradient>
		<path class="st3" d="M233.9,342.2V307c30.1,0,54.5-24.5,54.5-54.5h35.2C323.6,301.9,283.3,342.2,233.9,342.2z"/>
	</g>
	<g>
		<path class="st4" d="M323.6,396.7h-35.2c0-30.1-24.5-54.5-54.5-54.5V307C283.3,307,323.6,347.2,323.6,396.7z"/>
	</g>
	<g class="st5">
		
			<linearGradient id="SVGID_00000127008483057724607770000000320510329941034113_" gradientUnits="userSpaceOnUse" x1="313.2398" y1="376.0699" x2="278.3793" y2="354.6556">
			<stop  offset="0" style="stop-color:#000000"/>
			<stop  offset="1" style="stop-color:#000000;stop-opacity:0"/>
		</linearGradient>
		<path style="fill:url(#SVGID_00000127008483057724607770000000320510329941034113_);" d="M323.6,396.7h-35.2
			c0-30.1-24.5-54.5-54.5-54.5V307C283.3,307,323.6,347.2,323.6,396.7z"/>
	</g>
	<g>
		<path class="st7" d="M323.6,396.7h-35.2c0-49.5,40.2-89.7,89.7-89.7v35.2C348.1,342.2,323.6,366.6,323.6,396.7z"/>
	</g>
	<g class="st5">
		
			<linearGradient id="SVGID_00000170279856100283509890000001767069079495765426_" gradientUnits="userSpaceOnUse" x1="355.3908" y1="317.3345" x2="330.4904" y2="363.1512">
			<stop  offset="0" style="stop-color:#000000"/>
			<stop  offset="1" style="stop-color:#000000;stop-opacity:0"/>
		</linearGradient>
		<path style="fill:url(#SVGID_00000170279856100283509890000001767069079495765426_);" d="M323.6,396.7h-35.2
			c0-49.5,40.2-89.7,89.7-89.7v35.2C348.1,342.2,323.6,366.6,323.6,396.7z"/>
	</g>
	<g>
		<path class="st9" d="M378.1,342.2c-49.5,0-89.7-40.2-89.7-89.7h35.2c0,30.1,24.5,54.5,54.5,54.5V342.2z"/>
	</g>
	<g class="st5">
		
			<linearGradient id="SVGID_00000099624700828596285350000003899616861262640292_" gradientUnits="userSpaceOnUse" x1="310.8152" y1="267.2055" x2="336.2135" y2="299.078">
			<stop  offset="0" style="stop-color:#000000"/>
			<stop  offset="1" style="stop-color:#000000;stop-opacity:0"/>
		</linearGradient>
		<path style="fill:url(#SVGID_00000099624700828596285350000003899616861262640292_);" d="M378.1,342.2
			c-49.5,0-89.7-40.2-89.7-89.7h35.2c0,30.1,24.5,54.5,54.5,54.5V342.2z"/>
	</g>
	<path class="st1" d="M276.9,286l9.4,9.1l15.6,15.8c13.5-15.7,21.7-36.1,21.7-58.4h-35.2C288.4,265.1,284.1,276.7,276.9,286z"/>
	
		<rect x="372" y="236.7" transform="matrix(-1.836970e-16 1 -1 -1.836970e-16 630.5762 -125.3921)" class="st1" width="12" height="31.9"/>
	<rect x="372" y="236.7" class="st9" width="12" height="31.9"/>
	<rect x="372" y="246.6" class="st7" width="12" height="12"/>
</g>
</svg>
